<svg width="56" height="56" viewBox="0 0 56 56" fill="none" xmlns="http://www.w3.org/2000/svg">
<path d="M2.36411 26.3792C2.65107 26.0919 3.04226 25.9332 3.44829 25.9394L9.56601 26.0325C10.3766 26.0449 11.0306 26.699 11.043 27.5095C11.1087 31.8255 12.8171 36.152 16.1429 39.4778C22.133 45.4679 31.3065 46.1556 37.7514 41.6291C38.3478 41.2103 39.1589 41.2806 39.6742 41.7959L44.0918 46.2135C44.3966 46.5183 44.5555 46.9394 44.5281 47.3695C44.5007 47.7997 44.2897 48.1972 43.9487 48.4608C33.8807 56.2457 19.2173 55.2801 9.77898 45.8418L2.36411 26.3792ZM2.36411 26.3792C2.07716 26.6665 1.91896 27.0579 1.92566 27.464M2.36411 26.3792L1.92566 27.464M1.92566 27.464C2.03891 34.3244 4.86722 40.9306 9.77892 45.8418L1.92566 27.464ZM19.0256 13.6425L18.3659 13.6325C24.7823 9.47834 33.639 10.3049 39.4774 16.1433C45.4675 22.1334 46.1552 31.3069 41.6287 37.7519C41.2099 38.3482 41.2802 39.1593 41.7955 39.6746L46.2131 44.0922C46.5179 44.397 46.939 44.5559 47.3691 44.5285C47.7993 44.5011 48.1968 44.2901 48.4604 43.9491C56.2453 33.8811 55.2797 19.2177 45.8414 9.77932C36.3234 0.261361 21.4706 -0.650078 11.4034 7.33769L11.3831 5.99999C11.3707 5.1915 10.7198 4.53826 9.91137 4.5231L3.81487 4.40872C3.40828 4.40109 3.01601 4.55888 2.72795 4.84593C2.43988 5.13297 2.28071 5.52468 2.28691 5.9313L2.51653 21.0102C2.52888 21.8207 3.18297 22.4748 3.99352 22.4872L19.0724 22.7168C19.4781 22.723 19.869 22.5645 20.1559 22.2776C20.4428 21.9907 20.6012 21.5998 20.5951 21.1941L20.5025 15.1195C20.4902 14.3089 19.8361 13.6548 19.0256 13.6425Z" fill="white" stroke="url(#paint0_linear_3_258)" stroke-width="3" stroke-linejoin="round"/>
<defs>
<linearGradient id="paint0_linear_3_258" x1="4.84739" y1="4.8478" x2="45.1525" y2="45.1529" gradientUnits="userSpaceOnUse">
<stop stop-color="#FF32D0"/>
<stop offset="1" stop-color="#AD1B8D"/>
<stop offset="1" stop-color="#A50081"/>
</linearGradient>
</defs>
</svg>
