<svg width="28" height="43" viewBox="0 0 28 43" fill="none" xmlns="http://www.w3.org/2000/svg">
<path d="M26.0584 20.4371C26.3411 20.7185 26.5 21.101 26.5 21.5C26.5 21.8989 26.3411 22.2814 26.0584 22.5628L22.6362 25.9707L7.48066 41.0629C6.89539 41.6457 5.94907 41.6457 5.36379 41.0629L1.94157 37.655C1.6589 37.3735 1.5 36.991 1.5 36.5921C1.5 36.1932 1.6589 35.8107 1.94157 35.5292L16.0298 21.5L1.94157 7.47077C1.6589 7.18929 1.5 6.8068 1.5 6.40789C1.5 6.00897 1.6589 5.62649 1.94157 5.345L5.36379 1.93712C5.94907 1.35429 6.89538 1.35429 7.48066 1.93712L26.0584 20.4371L26.0584 20.4371Z" fill="white" stroke="#A9A9A9" stroke-width="3" stroke-linejoin="round"/>
</svg>
