<svg width="34" height="34" viewBox="0 0 34 34" fill="none" xmlns="http://www.w3.org/2000/svg">
<path d="M27.7051 1.93934C27.1193 1.35355 26.1696 1.35355 25.5838 1.93934L17 10.5231L8.41622 1.93939C7.83043 1.3536 6.88069 1.3536 6.2949 1.93939L1.93935 6.29494C1.65804 6.57624 1.50001 6.95777 1.50001 7.3556C1.50001 7.75342 1.65804 8.13495 1.93935 8.41626L10.5231 17L1.93934 25.5837C1.65804 25.865 1.5 26.2466 1.5 26.6444C1.5 27.0422 1.65804 27.4238 1.93934 27.7051L6.2949 32.0606C6.88068 32.6464 7.83043 32.6464 8.41621 32.0606L17 23.4769L25.5838 32.0607C26.1696 32.6464 27.1193 32.6464 27.7051 32.0607L32.0607 27.7051C32.342 27.4238 32.5 27.0423 32.5 26.6445C32.5 26.2466 32.342 25.8651 32.0607 25.5838L23.4769 17L32.0607 8.41621C32.342 8.1349 32.5 7.75337 32.5 7.35555C32.5 6.95772 32.342 6.57619 32.0607 6.29489L27.7051 1.93934Z" fill="white" stroke="url(#paint0_linear_708_4)" stroke-width="3" stroke-linejoin="round"/>
<defs>
<linearGradient id="paint0_linear_708_4" x1="17" y1="3" x2="17" y2="31" gradientUnits="userSpaceOnUse">
<stop stop-color="#FF32D0"/>
<stop offset="1" stop-color="#AD1B8D"/>
<stop offset="1" stop-color="#A50081"/>
</linearGradient>
</defs>
</svg>
