<svg width="38" height="35" viewBox="0 0 38 35" fill="none" xmlns="http://www.w3.org/2000/svg">
<path d="M3 18.7405H5.86364V30.524C5.86364 31.3063 6.16967 32.0609 6.72128 32.6206C7.27363 33.1811 8.02746 33.5 8.81818 33.5H29.1818C29.9725 33.5 30.7264 33.1811 31.2787 32.6206C31.8303 32.0609 32.1364 31.3063 32.1364 30.524V18.7405H35C35.6177 18.7405 36.1723 18.3618 36.3971 17.7865C36.6219 17.2111 36.4711 16.5568 36.017 16.1379L20.9965 2.28219C20.9963 2.28203 20.9961 2.28188 20.996 2.28173C20.4532 1.78082 19.7418 1.5 19 1.5C18.2582 1.5 17.5468 1.78082 17.004 2.28173C17.0039 2.28188 17.0037 2.28203 17.0035 2.28219L1.98295 16.1379C1.52891 16.5568 1.37805 17.2111 1.60289 17.7865C1.82773 18.3618 2.38228 18.7405 3 18.7405ZM17.5455 18.6924C16.717 18.6924 16.0455 19.364 16.0455 20.1924V27.5481H11.7727V15.1774L19 8.51114L26.2273 15.1774V27.5481H21.9545V20.1924C21.9545 19.364 21.283 18.6924 20.4545 18.6924H17.5455Z" fill="white" stroke="url(#paint0_linear_3_262)" stroke-width="3" stroke-linejoin="round"/>
<defs>
<linearGradient id="paint0_linear_3_262" x1="19" y1="3" x2="19" y2="32" gradientUnits="userSpaceOnUse">
<stop stop-color="#FF32D0"/>
<stop offset="1" stop-color="#AD1B8D"/>
<stop offset="1" stop-color="#A50081"/>
</linearGradient>
</defs>
</svg>
